<svg width="70" height="70" viewBox="0 0 70 70" fill="none" xmlns="http://www.w3.org/2000/svg">
<path d="M52.5 58.1656L46.8344 52.5L43.75 55.5844L52.5 64.3344L67.8125 49.0219L64.7281 45.9375L52.5 58.1656ZM32.8125 50.3125H37.1875V54.6875H32.8125V50.3125ZM19.6875 50.3125H24.0625V54.6875H19.6875V50.3125ZM45.9375 39.375H50.3125V43.75H45.9375V39.375ZM32.8125 39.375H37.1875V43.75H32.8125V39.375ZM19.6875 39.375H24.0625V43.75H19.6875V39.375ZM45.9375 28.4375H50.3125V32.8125H45.9375V28.4375ZM32.8125 28.4375H37.1875V32.8125H32.8125V28.4375ZM19.6875 28.4375H24.0625V32.8125H19.6875V28.4375ZM19.6875 15.3125H50.3125V21.875H19.6875V15.3125Z" fill="#CCCCCC"/>
<path d="M37.1875 65.625H13.1359C11.9731 65.6238 10.8582 65.1614 10.0359 64.3391C9.21362 63.5168 8.75116 62.4019 8.75 61.2391V8.74125C8.75116 7.5836 9.21154 6.4737 10.0301 5.65512C10.8487 4.83654 11.9586 4.37616 13.1162 4.375H56.8837C58.0414 4.37616 59.1513 4.83654 59.9699 5.65512C60.7885 6.4737 61.2488 7.5836 61.25 8.74125V39.375H56.875V8.75H13.125V61.25H37.1875V65.625Z" fill="#CCCCCC"/>
</svg>
