<svg width="21" height="20" viewBox="0 0 21 20" fill="none" xmlns="http://www.w3.org/2000/svg">
<path d="M16.6098 7.49999C15.9656 7.51716 15.3408 7.27839 14.8723 6.83596C14.4037 6.39353 14.1295 5.78349 14.1098 5.13936C14.1214 4.67948 14.2629 4.23226 14.5179 3.84936L16.091 1.50874C16.1514 1.42826 16.2298 1.36295 16.3198 1.31797C16.4098 1.27299 16.5091 1.24957 16.6098 1.24957C16.7104 1.24957 16.8097 1.27299 16.8997 1.31797C16.9897 1.36295 17.0681 1.42826 17.1285 1.50874L18.6816 3.81874C18.9471 4.20924 19.0956 4.66739 19.1098 5.13936C19.09 5.78349 18.8158 6.39353 18.3473 6.83596C17.8787 7.27839 17.2539 7.51716 16.6098 7.49999ZM16.6098 2.97686L15.5748 4.51624C15.4454 4.69934 15.3708 4.91546 15.3598 5.13936C15.396 5.44541 15.5433 5.72751 15.7737 5.9322C16.0041 6.13689 16.3016 6.24995 16.6098 6.24995C16.9179 6.24995 17.2154 6.13689 17.4458 5.9322C17.6762 5.72751 17.8235 5.44541 17.8598 5.13936C17.8458 4.90333 17.7644 4.67624 17.6254 4.48499L16.6098 2.97686ZM15.0473 18.75H5.67225C4.66541 18.7511 3.69409 18.378 2.94685 17.7032C2.1996 17.0284 1.72975 16.1 1.6285 15.0983C1.52725 14.0965 1.80183 13.0929 2.39893 12.2822C2.99604 11.4716 3.87306 10.9117 4.85975 10.7112C5.12607 9.44986 5.81788 8.31834 6.81921 7.50635C7.82055 6.69435 9.07056 6.25122 10.3598 6.25122C11.6489 6.25122 12.899 6.69435 13.9003 7.50635C14.9016 8.31834 15.5934 9.44986 15.8598 10.7112C16.8464 10.9117 17.7235 11.4716 18.3206 12.2822C18.9177 13.0929 19.1923 14.0965 19.091 15.0983C18.9898 16.1 18.5199 17.0284 17.7727 17.7032C17.0254 18.378 16.0541 18.7511 15.0473 18.75ZM10.3598 7.49999C9.29269 7.50099 8.26277 7.89194 7.46382 8.59927C6.66487 9.3066 6.15196 10.2815 6.02163 11.3406L5.95913 11.8481L5.44975 11.8881C4.72429 11.9434 4.04852 12.2778 3.56464 12.8212C3.08075 13.3645 2.82647 14.0743 2.8553 14.8013C2.88412 15.5283 3.1938 16.2158 3.71918 16.7191C4.24457 17.2224 4.94469 17.5024 5.67225 17.5H15.0473C15.7748 17.5024 16.4749 17.2224 17.0003 16.7191C17.5257 16.2158 17.8354 15.5283 17.8642 14.8013C17.893 14.0743 17.6388 13.3645 17.1549 12.8212C16.671 12.2778 15.9952 11.9434 15.2698 11.8881L14.7604 11.8481L14.6985 11.3406C14.5679 10.2815 14.0548 9.30667 13.2558 8.59938C12.4568 7.89209 11.4269 7.50111 10.3598 7.49999Z" fill="black"/>
</svg>
