<svg width="90" height="90" viewBox="0 0 90 90" fill="none" xmlns="http://www.w3.org/2000/svg">
<path d="M26.25 67.5V63.75C26.25 58.7772 28.2254 54.0081 31.7417 50.4917C35.2581 46.9754 40.0272 45 45 45C49.9728 45 54.7419 46.9754 58.2583 50.4917C61.7746 54.0081 63.75 58.7772 63.75 63.75V67.5M3.75 67.5V63.75C3.75 60.7663 4.93526 57.9048 7.04505 55.795C9.15483 53.6853 12.0163 52.5 15 52.5M86.25 67.5V63.75C86.25 60.7663 85.0647 57.9048 82.955 55.795C80.8452 53.6853 77.9837 52.5 75 52.5M45 45C47.9837 45 50.8452 43.8147 52.955 41.705C55.0647 39.5952 56.25 36.7337 56.25 33.75C56.25 30.7663 55.0647 27.9048 52.955 25.795C50.8452 23.6853 47.9837 22.5 45 22.5C42.0163 22.5 39.1548 23.6853 37.045 25.795C34.9353 27.9048 33.75 30.7663 33.75 33.75C33.75 36.7337 34.9353 39.5952 37.045 41.705C39.1548 43.8147 42.0163 45 45 45ZM15 52.5C16.9891 52.5 18.8968 51.7098 20.3033 50.3033C21.7098 48.8968 22.5 46.9891 22.5 45C22.5 43.0109 21.7098 41.1032 20.3033 39.6967C18.8968 38.2902 16.9891 37.5 15 37.5C13.0109 37.5 11.1032 38.2902 9.6967 39.6967C8.29018 41.1032 7.5 43.0109 7.5 45C7.5 46.9891 8.29018 48.8968 9.6967 50.3033C11.1032 51.7098 13.0109 52.5 15 52.5ZM75 52.5C76.9891 52.5 78.8968 51.7098 80.3033 50.3033C81.7098 48.8968 82.5 46.9891 82.5 45C82.5 43.0109 81.7098 41.1032 80.3033 39.6967C78.8968 38.2902 76.9891 37.5 75 37.5C73.0109 37.5 71.1032 38.2902 69.6967 39.6967C68.2902 41.1032 67.5 43.0109 67.5 45C67.5 46.9891 68.2902 48.8968 69.6967 50.3033C71.1032 51.7098 73.0109 52.5 75 52.5Z" fill="#D9D9D9"/>
<path d="M26.25 67.5V63.75C26.25 58.7772 28.2254 54.0081 31.7417 50.4917C35.2581 46.9754 40.0272 45 45 45M45 45C49.9728 45 54.7419 46.9754 58.2583 50.4917C61.7746 54.0081 63.75 58.7772 63.75 63.75V67.5M45 45C47.9837 45 50.8452 43.8147 52.955 41.705C55.0647 39.5952 56.25 36.7337 56.25 33.75C56.25 30.7663 55.0647 27.9048 52.955 25.795C50.8452 23.6853 47.9837 22.5 45 22.5C42.0163 22.5 39.1548 23.6853 37.045 25.795C34.9353 27.9048 33.75 30.7663 33.75 33.75C33.75 36.7337 34.9353 39.5952 37.045 41.705C39.1548 43.8147 42.0163 45 45 45ZM3.75 67.5V63.75C3.75 60.7663 4.93526 57.9048 7.04505 55.795C9.15483 53.6853 12.0163 52.5 15 52.5M15 52.5C16.9891 52.5 18.8968 51.7098 20.3033 50.3033C21.7098 48.8968 22.5 46.9891 22.5 45C22.5 43.0109 21.7098 41.1032 20.3033 39.6967C18.8968 38.2902 16.9891 37.5 15 37.5C13.0109 37.5 11.1032 38.2902 9.6967 39.6967C8.29018 41.1032 7.5 43.0109 7.5 45C7.5 46.9891 8.29018 48.8968 9.6967 50.3033C11.1032 51.7098 13.0109 52.5 15 52.5ZM86.25 67.5V63.75C86.25 60.7663 85.0647 57.9048 82.955 55.795C80.8452 53.6853 77.9837 52.5 75 52.5M75 52.5C76.9891 52.5 78.8968 51.7098 80.3033 50.3033C81.7098 48.8968 82.5 46.9891 82.5 45C82.5 43.0109 81.7098 41.1032 80.3033 39.6967C78.8968 38.2902 76.9891 37.5 75 37.5C73.0109 37.5 71.1032 38.2902 69.6967 39.6967C68.2902 41.1032 67.5 43.0109 67.5 45C67.5 46.9891 68.2902 48.8968 69.6967 50.3033C71.1032 51.7098 73.0109 52.5 75 52.5Z" stroke="#CCCCCC" stroke-width="1.5" stroke-linecap="round" stroke-linejoin="round"/>
</svg>
