<svg width="24" height="24" viewBox="0 0 24 24" fill="none" xmlns="http://www.w3.org/2000/svg">
<path d="M12 10C12.55 10 13.021 9.804 13.413 9.412C13.8043 9.02067 14 8.55 14 8C14 7.45 13.8043 6.979 13.413 6.587C13.021 6.19567 12.55 6 12 6C11.45 6 10.9793 6.19567 10.588 6.587C10.196 6.979 10 7.45 10 8C10 8.55 10.196 9.02067 10.588 9.412C10.9793 9.804 11.45 10 12 10ZM12 20C9.31667 17.7167 7.31267 15.5957 5.988 13.637C4.66267 11.679 4 9.86667 4 8.2C4 5.7 4.80433 3.70833 6.413 2.225C8.021 0.741667 9.88333 0 12 0C14.1167 0 15.979 0.741667 17.587 2.225C19.1957 3.70833 20 5.7 20 8.2C20 9.86667 19.3377 11.679 18.013 13.637C16.6877 15.5957 14.6833 17.7167 12 20Z" fill="white"/>
</svg>
