<svg width="80" height="80" viewBox="0 0 80 80" fill="none" xmlns="http://www.w3.org/2000/svg">
<g clip-path="url(#clip0_337_15)">
<path d="M73.3333 33.3333L71.25 28.75L66.6667 26.6667L71.25 24.5833L73.3333 20L75.4167 24.5833L80 26.6667L75.4167 28.75L73.3333 33.3333ZM63.3333 20L60.1667 13.1667L53.3333 10L60.1667 6.83333L63.3333 0L66.5 6.83333L73.3333 10L66.5 13.1667L63.3333 20ZM30 73.3333C28.1667 73.3333 26.5967 72.68 25.29 71.3733C23.9833 70.0667 23.3311 68.4978 23.3333 66.6667H36.6667C36.6667 68.5 36.0133 70.07 34.7067 71.3767C33.4 72.6833 31.8311 73.3356 30 73.3333ZM16.6667 63.3333V56.6667H43.3333V63.3333H16.6667ZM17.5 53.3333C13.6667 51.0556 10.6244 48 8.37334 44.1667C6.12223 40.3333 4.99778 36.1667 5 31.6667C5 24.7222 7.43111 18.8189 12.2933 13.9567C17.1556 9.09444 23.0578 6.66444 30 6.66667C36.9444 6.66667 42.8478 9.09778 47.71 13.96C52.5722 18.8222 55.0022 24.7244 55 31.6667C55 36.1667 53.8756 40.3333 51.6267 44.1667C49.3778 48 46.3356 51.0556 42.5 53.3333H17.5Z" fill="#CCCCCC"/>
</g>
<defs>
<clipPath id="clip0_337_15">
<rect width="80" height="80" fill="white"/>
</clipPath>
</defs>
</svg>
