<svg width="72" height="71" viewBox="0 0 72 71" fill="none" xmlns="http://www.w3.org/2000/svg">
<path d="M33.938 47.0596C34.5877 47.7071 35.4005 48.0155 36.3763 47.9849C37.3497 47.9566 38.1613 47.6188 38.811 46.9713C39.4607 46.3238 39.7856 45.4998 39.7856 44.4991C39.7856 43.4985 39.4607 42.6744 38.811 42.0269L35.6214 38.8484H47.0508C48.0549 38.8484 48.8819 38.5094 49.5316 37.8313C50.1814 37.1556 50.5062 36.3174 50.5062 35.3168C50.5062 34.3161 50.1672 33.4768 49.4891 32.7987C48.8086 32.1229 47.9663 31.7851 46.9622 31.7851H35.6214L38.8996 28.5183C39.5493 27.8708 39.86 27.0609 39.8317 26.0885C39.801 25.1185 39.4607 24.3097 38.811 23.6622C38.1613 23.0148 37.3343 22.691 36.3302 22.691C35.3261 22.691 34.4991 23.0148 33.8494 23.6622L24.635 32.8446C23.9852 33.4921 23.6604 34.3161 23.6604 35.3168C23.6604 36.3174 23.9852 37.1415 24.635 37.7889L33.938 47.0596ZM36.3302 70.6335C31.4277 70.6335 26.8204 69.7059 22.5086 67.8506C18.1967 65.9976 14.446 63.4819 11.2564 60.3034C8.06675 57.1249 5.54224 53.3872 3.68281 49.0903C1.82103 44.7934 0.890137 40.2022 0.890137 35.3168C0.890137 30.4313 1.82103 25.8401 3.68281 21.5432C5.54224 17.2464 8.06675 13.5087 11.2564 10.3302C14.446 7.15164 18.1967 4.63474 22.5086 2.77943C26.8204 0.926476 31.4277 0 36.3302 0C41.2327 0 45.8399 0.926476 50.1518 2.77943C54.4637 4.63474 58.2144 7.15164 61.404 10.3302C64.5936 13.5087 67.1182 17.2464 68.9776 21.5432C70.8394 25.8401 71.7703 30.4313 71.7703 35.3168C71.7703 40.2022 70.8394 44.7934 68.9776 49.0903C67.1182 53.3872 64.5936 57.1249 61.404 60.3034C58.2144 63.4819 54.4637 65.9976 50.1518 67.8506C45.8399 69.7059 41.2327 70.6335 36.3302 70.6335Z" fill="black" fill-opacity="0.8"/>
</svg>
