<svg width="71" height="71" viewBox="0 0 71 71" fill="none" xmlns="http://www.w3.org/2000/svg">
<path d="M35.4169 49.5833L49.5836 35.4167L35.4169 21.25L30.4586 26.2083L36.1252 31.875H21.2502V38.9583H36.1252L30.4586 44.625L35.4169 49.5833ZM35.4169 70.8333C30.5176 70.8333 25.9134 69.9031 21.6044 68.0425C17.2954 66.1843 13.5471 63.6615 10.3596 60.474C7.17212 57.2865 4.64927 53.5382 2.79108 49.2292C0.930522 44.9201 0.000244141 40.316 0.000244141 35.4167C0.000244141 30.5174 0.930522 25.9132 2.79108 21.6042C4.64927 17.2951 7.17212 13.5469 10.3596 10.3594C13.5471 7.17188 17.2954 4.64785 21.6044 2.78729C25.9134 0.929097 30.5176 0 35.4169 0C40.3162 0 44.9204 0.929097 49.2294 2.78729C53.5384 4.64785 57.2867 7.17188 60.4742 10.3594C63.6617 13.5469 66.1846 17.2951 68.0427 21.6042C69.9033 25.9132 70.8336 30.5174 70.8336 35.4167C70.8336 40.316 69.9033 44.9201 68.0427 49.2292C66.1846 53.5382 63.6617 57.2865 60.4742 60.474C57.2867 63.6615 53.5384 66.1843 49.2294 68.0425C44.9204 69.9031 40.3162 70.8333 35.4169 70.8333Z" fill="black" fill-opacity="0.8"/>
</svg>
