<svg width="72" height="71" viewBox="0 0 72 71" fill="none" xmlns="http://www.w3.org/2000/svg">
<path d="M33.7996 47.1927C34.4496 47.842 35.2628 48.1513 36.239 48.1206C37.2129 48.0923 38.0249 47.7535 38.675 47.1042C39.325 46.4549 39.65 45.6285 39.65 44.625C39.65 43.6215 39.325 42.7951 38.675 42.1458L35.4838 38.9583H46.9188C47.9234 38.9583 48.7508 38.6183 49.4008 37.9383C50.0509 37.2607 50.3759 36.4201 50.3759 35.4167C50.3759 34.4132 50.0367 33.5715 49.3583 32.8915C48.6775 32.2138 47.8348 31.875 46.8301 31.875H35.4838L38.7636 28.599C39.4136 27.9497 39.7245 27.1374 39.6961 26.1623C39.6654 25.1895 39.325 24.3785 38.675 23.7292C38.0249 23.0799 37.1976 22.7552 36.1929 22.7552C35.1883 22.7552 34.361 23.0799 33.7109 23.7292L24.492 32.9375C23.842 33.5868 23.5169 34.4132 23.5169 35.4167C23.5169 36.4201 23.842 37.2465 24.492 37.8958L33.7996 47.1927ZM36.1929 70.8333C31.288 70.8333 26.6786 69.9031 22.3646 68.0425C18.0506 66.1843 14.298 63.6615 11.1069 60.474C7.91571 57.2865 5.38996 53.5382 3.52963 49.2292C1.66694 44.9201 0.735596 40.316 0.735596 35.4167C0.735596 30.5174 1.66694 25.9132 3.52963 21.6042C5.38996 17.2951 7.91571 13.5469 11.1069 10.3594C14.298 7.17188 18.0506 4.64785 22.3646 2.78729C26.6786 0.929097 31.288 0 36.1929 0C41.0979 0 45.7073 0.929097 50.0213 2.78729C54.3353 4.64785 58.0879 7.17188 61.279 10.3594C64.4702 13.5469 66.9959 17.2951 68.8562 21.6042C70.7189 25.9132 71.6503 30.5174 71.6503 35.4167C71.6503 40.316 70.7189 44.9201 68.8562 49.2292C66.9959 53.5382 64.4702 57.2865 61.279 60.474C58.0879 63.6615 54.3353 66.1843 50.0213 68.0425C45.7073 69.9031 41.0979 70.8333 36.1929 70.8333Z" fill="black" fill-opacity="0.8"/>
</svg>
