<svg width="71" height="71" viewBox="0 0 71 71" fill="none" xmlns="http://www.w3.org/2000/svg">
<path d="M33.026 47.1927C33.6753 47.842 34.4876 48.1513 35.4627 48.1206C36.4355 48.0923 37.2465 47.7535 37.8958 47.1042C38.5451 46.4549 38.8698 45.6285 38.8698 44.625C38.8698 43.6215 38.5451 42.7951 37.8958 42.1458L34.7083 38.9583H46.1302C47.1337 38.9583 47.9601 38.6183 48.6094 37.9383C49.2587 37.2607 49.5833 36.4201 49.5833 35.4167C49.5833 34.4132 49.2445 33.5715 48.5669 32.8915C47.8869 32.2138 47.0451 31.875 46.0417 31.875H34.7083L37.9844 28.599C38.6337 27.9497 38.9442 27.1374 38.9158 26.1623C38.8851 25.1895 38.5451 24.3785 37.8958 23.7292C37.2465 23.0799 36.4201 22.7552 35.4167 22.7552C34.4132 22.7552 33.5868 23.0799 32.9375 23.7292L23.7292 32.9375C23.0799 33.5868 22.7552 34.4132 22.7552 35.4167C22.7552 36.4201 23.0799 37.2465 23.7292 37.8958L33.026 47.1927ZM35.4167 70.8333C30.5174 70.8333 25.9132 69.9031 21.6042 68.0425C17.2951 66.1843 13.5469 63.6615 10.3594 60.474C7.17188 57.2865 4.64903 53.5382 2.79083 49.2292C0.930278 44.9201 0 40.316 0 35.4167C0 30.5174 0.930278 25.9132 2.79083 21.6042C4.64903 17.2951 7.17188 13.5469 10.3594 10.3594C13.5469 7.17188 17.2951 4.64785 21.6042 2.78729C25.9132 0.929097 30.5174 0 35.4167 0C40.316 0 44.9201 0.929097 49.2292 2.78729C53.5382 4.64785 57.2865 7.17188 60.474 10.3594C63.6615 13.5469 66.1843 17.2951 68.0425 21.6042C69.9031 25.9132 70.8333 30.5174 70.8333 35.4167C70.8333 40.316 69.9031 44.9201 68.0425 49.2292C66.1843 53.5382 63.6615 57.2865 60.474 60.474C57.2865 63.6615 53.5382 66.1843 49.2292 68.0425C44.9201 69.9031 40.316 70.8333 35.4167 70.8333Z" fill="black" fill-opacity="0.8"/>
</svg>
