<svg width="71" height="71" viewBox="0 0 71 71" fill="none" xmlns="http://www.w3.org/2000/svg">
<path d="M33.1925 47.1927C33.8419 47.842 34.6541 48.1513 35.6292 48.1206C36.602 48.0923 37.413 47.7535 38.0623 47.1042C38.7116 46.4549 39.0363 45.6285 39.0363 44.625C39.0363 43.6215 38.7116 42.7951 38.0623 42.1458L34.8748 38.9583H46.2967C47.3002 38.9583 48.1266 38.6183 48.7759 37.9383C49.4252 37.2607 49.7498 36.4201 49.7498 35.4167C49.7498 34.4132 49.411 33.5715 48.7334 32.8915C48.0534 32.2138 47.2116 31.875 46.2082 31.875H34.8748L38.1509 28.599C38.8002 27.9497 39.1107 27.1374 39.0823 26.1623C39.0516 25.1895 38.7116 24.3785 38.0623 23.7292C37.413 23.0799 36.5866 22.7552 35.5832 22.7552C34.5797 22.7552 33.7533 23.0799 33.104 23.7292L23.8957 32.9375C23.2464 33.5868 22.9217 34.4132 22.9217 35.4167C22.9217 36.4201 23.2464 37.2465 23.8957 37.8958L33.1925 47.1927ZM35.5832 70.8333C30.6839 70.8333 26.0797 69.9031 21.7707 68.0425C17.4616 66.1843 13.7134 63.6615 10.5259 60.474C7.33838 57.2865 4.81553 53.5382 2.95734 49.2292C1.09678 44.9201 0.166504 40.316 0.166504 35.4167C0.166504 30.5174 1.09678 25.9132 2.95734 21.6042C4.81553 17.2951 7.33838 13.5469 10.5259 10.3594C13.7134 7.17188 17.4616 4.64785 21.7707 2.78729C26.0797 0.929097 30.6839 0 35.5832 0C40.4825 0 45.0866 0.929097 49.3957 2.78729C53.7047 4.64785 57.453 7.17188 60.6405 10.3594C63.828 13.5469 66.3508 17.2951 68.209 21.6042C70.0696 25.9132 70.9998 30.5174 70.9998 35.4167C70.9998 40.316 70.0696 44.9201 68.209 49.2292C66.3508 53.5382 63.828 57.2865 60.6405 60.474C57.453 63.6615 53.7047 66.1843 49.3957 68.0425C45.0866 69.9031 40.4825 70.8333 35.5832 70.8333Z" fill="black" fill-opacity="0.8"/>
</svg>
