<svg width="72" height="71" viewBox="0 0 72 71" fill="none" xmlns="http://www.w3.org/2000/svg">
<path d="M35.67 49.4435L49.8461 35.3168L35.67 21.1901L30.7084 26.1344L36.3788 31.7851H21.494V38.8484H36.3788L30.7084 44.4991L35.67 49.4435ZM35.67 70.6335C30.7675 70.6335 26.1603 69.7059 21.8484 67.8506C17.5365 65.9976 13.7858 63.4819 10.5962 60.3034C7.40659 57.1249 4.88208 53.3872 3.02266 49.0903C1.16087 44.7934 0.22998 40.2022 0.22998 35.3168C0.22998 30.4313 1.16087 25.8401 3.02266 21.5432C4.88208 17.2464 7.40659 13.5087 10.5962 10.3302C13.7858 7.15164 17.5365 4.63474 21.8484 2.77943C26.1603 0.926476 30.7675 0 35.67 0C40.5726 0 45.1798 0.926476 49.4917 2.77943C53.8035 4.63474 57.5543 7.15164 60.7439 10.3302C63.9335 13.5087 66.458 17.2464 68.3174 21.5432C70.1792 25.8401 71.1101 30.4313 71.1101 35.3168C71.1101 40.2022 70.1792 44.7934 68.3174 49.0903C66.458 53.3872 63.9335 57.1249 60.7439 60.3034C57.5543 63.4819 53.8035 65.9976 49.4917 67.8506C45.1798 69.7059 40.5726 70.6335 35.67 70.6335Z" fill="black" fill-opacity="0.8"/>
</svg>
