<svg width="72" height="71" viewBox="0 0 72 71" fill="none" xmlns="http://www.w3.org/2000/svg">
<path d="M35.8072 49.5833L49.9901 35.4167L35.8072 21.25L30.8432 26.2083L36.5163 31.875H21.6243V38.9583H36.5163L30.8432 44.625L35.8072 49.5833ZM35.8072 70.8333C30.9023 70.8333 26.2928 69.9031 21.9788 68.0425C17.6649 66.1843 13.9123 63.6615 10.7211 60.474C7.52997 57.2865 5.00422 53.5382 3.14389 49.2292C1.2812 44.9201 0.349854 40.316 0.349854 35.4167C0.349854 30.5174 1.2812 25.9132 3.14389 21.6042C5.00422 17.2951 7.52997 13.5469 10.7211 10.3594C13.9123 7.17188 17.6649 4.64785 21.9788 2.78729C26.2928 0.929097 30.9023 0 35.8072 0C40.7121 0 45.3216 0.929097 49.6356 2.78729C53.9495 4.64785 57.7021 7.17188 60.8933 10.3594C64.0844 13.5469 66.6102 17.2951 68.4705 21.6042C70.3332 25.9132 71.2645 30.5174 71.2645 35.4167C71.2645 40.316 70.3332 44.9201 68.4705 49.2292C66.6102 53.5382 64.0844 57.2865 60.8933 60.474C57.7021 63.6615 53.9495 66.1843 49.6356 68.0425C45.3216 69.9031 40.7121 70.8333 35.8072 70.8333Z" fill="black" fill-opacity="0.8"/>
</svg>
