<svg width="71" height="71" viewBox="0 0 71 71" fill="none" xmlns="http://www.w3.org/2000/svg">
<path d="M35.5002 49.6667L49.6668 35.5L35.5002 21.3333L30.5418 26.2917L36.2085 31.9583H21.3335V39.0417H36.2085L30.5418 44.7083L35.5002 49.6667ZM35.5002 70.9167C30.6009 70.9167 25.9967 69.9864 21.6877 68.1258C17.3786 66.2677 13.6304 63.7448 10.4429 60.5573C7.25537 57.3698 4.73252 53.6215 2.87433 49.3125C1.01377 45.0035 0.0834961 40.3993 0.0834961 35.5C0.0834961 30.6007 1.01377 25.9965 2.87433 21.6875C4.73252 17.3785 7.25537 13.6302 10.4429 10.4427C13.6304 7.25522 17.3786 4.73119 21.6877 2.87064C25.9967 1.01244 30.6009 0.0833435 35.5002 0.0833435C40.3995 0.0833435 45.0036 1.01244 49.3127 2.87064C53.6217 4.73119 57.37 7.25522 60.5575 10.4427C63.745 13.6302 66.2678 17.3785 68.126 21.6875C69.9866 25.9965 70.9168 30.6007 70.9168 35.5C70.9168 40.3993 69.9866 45.0035 68.126 49.3125C66.2678 53.6215 63.745 57.3698 60.5575 60.5573C57.37 63.7448 53.6217 66.2677 49.3127 68.1258C45.0036 69.9864 40.3995 70.9167 35.5002 70.9167Z" fill="black" fill-opacity="0.8"/>
</svg>
