<svg width="70" height="72" viewBox="0 0 70 72" fill="none" xmlns="http://www.w3.org/2000/svg">
<path d="M34.9722 49.9435L48.7678 35.8168L34.9722 21.6901L30.1437 26.6344L35.662 32.2851H21.1766V39.3484H35.662L30.1437 44.9991L34.9722 49.9435ZM34.9722 71.1335C30.2012 71.1335 25.7176 70.2059 21.5215 68.3506C17.3253 66.4976 13.6752 63.9819 10.5712 60.8034C7.46719 57.6249 5.01042 53.8872 3.20089 49.5903C1.38907 45.2934 0.483154 40.7022 0.483154 35.8168C0.483154 30.9313 1.38907 26.3401 3.20089 22.0432C5.01042 17.7464 7.46719 14.0087 10.5712 10.8302C13.6752 7.65165 17.3253 5.13474 21.5215 3.27943C25.7176 1.42648 30.2012 0.5 34.9722 0.5C39.7432 0.5 44.2268 1.42648 48.4229 3.27943C52.6191 5.13474 56.2692 7.65165 59.3732 10.8302C62.4772 14.0087 64.934 17.7464 66.7435 22.0432C68.5553 26.3401 69.4612 30.9313 69.4612 35.8168C69.4612 40.7022 68.5553 45.2934 66.7435 49.5903C64.934 53.8872 62.4772 57.6249 59.3732 60.8034C56.2692 63.9819 52.6191 66.4976 48.4229 68.3506C44.2268 70.2059 39.7432 71.1335 34.9722 71.1335Z" fill="black" fill-opacity="0.8"/>
</svg>
