<svg width="70" height="72" viewBox="0 0 70 72" fill="none" xmlns="http://www.w3.org/2000/svg">
<path d="M32.7001 47.5596C33.3324 48.2071 34.1233 48.5155 35.0729 48.4849C36.0202 48.4566 36.81 48.1188 37.4423 47.4713C38.0746 46.8238 38.3908 45.9998 38.3908 44.9991C38.3908 43.9985 38.0746 43.1744 37.4423 42.5269L34.3383 39.3484H45.461C46.4382 39.3484 47.243 39.0094 47.8753 38.3313C48.5076 37.6556 48.8237 36.8174 48.8237 35.8168C48.8237 34.8161 48.4938 33.9768 47.8339 33.2987C47.1717 32.6229 46.352 32.2851 45.3748 32.2851H34.3383L37.5286 29.0183C38.1609 28.3708 38.4632 27.5609 38.4356 26.5885C38.4057 25.6185 38.0746 24.8097 37.4423 24.1622C36.81 23.5148 36.0053 23.191 35.0281 23.191C34.0509 23.191 33.2462 23.5148 32.6139 24.1622L23.6467 33.3446C23.0144 33.9921 22.6983 34.8161 22.6983 35.8168C22.6983 36.8174 23.0144 37.6415 23.6467 38.2889L32.7001 47.5596ZM35.0281 71.1335C30.2571 71.1335 25.7735 70.2059 21.5774 68.3506C17.3812 66.4976 13.7311 63.9819 10.6271 60.8034C7.52309 57.6249 5.06632 53.8872 3.2568 49.5903C1.44497 45.2934 0.539062 40.7022 0.539062 35.8168C0.539062 30.9313 1.44497 26.3401 3.2568 22.0432C5.06632 17.7464 7.52309 14.0087 10.6271 10.8302C13.7311 7.65165 17.3812 5.13474 21.5774 3.27943C25.7735 1.42648 30.2571 0.5 35.0281 0.5C39.7991 0.5 44.2827 1.42648 48.4788 3.27943C52.675 5.13474 56.3251 7.65165 59.4291 10.8302C62.5331 14.0087 64.9899 17.7464 66.7994 22.0432C68.6112 26.3401 69.5172 30.9313 69.5172 35.8168C69.5172 40.7022 68.6112 45.2934 66.7994 49.5903C64.9899 53.8872 62.5331 57.6249 59.4291 60.8034C56.3251 63.9819 52.675 66.4976 48.4788 68.3506C44.2827 70.2059 39.7991 71.1335 35.0281 71.1335Z" fill="black" fill-opacity="0.8"/>
</svg>
