<svg width="1353" height="527" viewBox="0 0 1353 527" fill="none" xmlns="http://www.w3.org/2000/svg">
<g filter="url(#filter0_i_316_451)">
<rect x="34.0403" y="0.5" width="1279" height="526" rx="35" fill="#D9D9D9" fill-opacity="0.7"/>
</g>
<path d="M1317.46 277.036L1331.64 262.91L1317.46 248.783L1312.5 253.727L1318.17 259.378H1303.29V266.441H1318.17L1312.5 272.092L1317.46 277.036ZM1317.46 298.226C1312.56 298.226 1307.95 297.299 1303.64 295.444C1299.33 293.591 1295.58 291.075 1292.39 287.896C1289.2 284.718 1286.68 280.98 1284.82 276.683C1282.96 272.386 1282.02 267.795 1282.02 262.91C1282.02 258.024 1282.96 253.433 1284.82 249.136C1286.68 244.839 1289.2 241.102 1292.39 237.923C1295.58 234.745 1299.33 232.228 1303.64 230.372C1307.95 228.519 1312.56 227.593 1317.46 227.593C1322.37 227.593 1326.97 228.519 1331.29 230.372C1335.6 232.228 1339.35 234.745 1342.54 237.923C1345.73 241.102 1348.25 244.839 1350.11 249.136C1351.97 253.433 1352.9 258.024 1352.9 262.91C1352.9 267.795 1351.97 272.386 1350.11 276.683C1348.25 280.98 1345.73 284.718 1342.54 287.896C1339.35 291.075 1335.6 293.591 1331.29 295.444C1326.97 297.299 1322.37 298.226 1317.46 298.226Z" fill="black" fill-opacity="0.8"/>
<path d="M33.1431 274.569C33.7928 275.217 34.6056 275.525 35.5813 275.495C36.5548 275.467 37.3663 275.129 38.0161 274.481C38.6658 273.834 38.9907 273.01 38.9907 272.009C38.9907 271.008 38.6658 270.184 38.0161 269.537L34.8265 266.358H46.2559C47.26 266.358 48.087 266.019 48.7367 265.341C49.3864 264.665 49.7113 263.827 49.7113 262.827C49.7113 261.826 49.3723 260.987 48.6942 260.309C48.0137 259.633 47.1714 259.295 46.1673 259.295H34.8265L38.1047 256.028C38.7544 255.381 39.0651 254.571 39.0368 253.598C39.006 252.628 38.6658 251.82 38.0161 251.172C37.3663 250.525 36.5394 250.201 35.5353 250.201C34.5311 250.201 33.7042 250.525 33.0545 251.172L23.8401 260.354C23.1903 261.002 22.8655 261.826 22.8655 262.827C22.8655 263.827 23.1903 264.651 23.8401 265.299L33.1431 274.569ZM35.5353 298.143C30.6327 298.143 26.0255 297.216 21.7137 295.36C17.4018 293.507 13.651 290.992 10.4614 287.813C7.27183 284.635 4.74731 280.897 2.88789 276.6C1.02611 272.303 0.0952148 267.712 0.0952148 262.827C0.0952148 257.941 1.02611 253.35 2.88789 249.053C4.74731 244.756 7.27183 241.019 10.4614 237.84C13.651 234.662 17.4018 232.145 21.7137 230.289C26.0255 228.436 30.6327 227.51 35.5353 227.51C40.4378 227.51 45.045 228.436 49.3569 230.289C53.6688 232.145 57.4195 234.662 60.6091 237.84C63.7987 241.019 66.3232 244.756 68.1827 249.053C70.0444 253.35 70.9753 257.941 70.9753 262.827C70.9753 267.712 70.0444 272.303 68.1827 276.6C66.3232 280.897 63.7987 284.635 60.6091 287.813C57.4195 290.992 53.6688 293.507 49.3569 295.36C45.045 297.216 40.4378 298.143 35.5353 298.143Z" fill="black" fill-opacity="0.8"/>
<defs>
<filter id="filter0_i_316_451" x="34.0403" y="0.5" width="1283" height="530" filterUnits="userSpaceOnUse" color-interpolation-filters="sRGB">
<feFlood flood-opacity="0" result="BackgroundImageFix"/>
<feBlend mode="normal" in="SourceGraphic" in2="BackgroundImageFix" result="shape"/>
<feColorMatrix in="SourceAlpha" type="matrix" values="0 0 0 0 0 0 0 0 0 0 0 0 0 0 0 0 0 0 127 0" result="hardAlpha"/>
<feOffset dx="4" dy="6"/>
<feGaussianBlur stdDeviation="2"/>
<feComposite in2="hardAlpha" operator="arithmetic" k2="-1" k3="1"/>
<feColorMatrix type="matrix" values="0 0 0 0 0 0 0 0 0 0 0 0 0 0 0 0 0 0 0.5 0"/>
<feBlend mode="normal" in2="shape" result="effect1_innerShadow_316_451"/>
</filter>
</defs>
</svg>
