<svg width="70" height="68" viewBox="0 0 70 68" fill="none" xmlns="http://www.w3.org/2000/svg">
<mask id="mask0_304_186" style="mask-type:luminance" maskUnits="userSpaceOnUse" x="0" y="0" width="70" height="68">
<path d="M62.3332 21.3333H7.6665C4.83604 21.3333 2.5415 23.6279 2.5415 26.4583V60.625C2.5415 63.4554 4.83604 65.75 7.6665 65.75H62.3332C65.1636 65.75 67.4582 63.4554 67.4582 60.625V26.4583C67.4582 23.6279 65.1636 21.3333 62.3332 21.3333Z" fill="#555555" stroke="white" stroke-width="4" stroke-linejoin="round"/>
<path d="M26.4582 7.66665H43.5415V0.833313H26.4582V7.66665ZM45.2498 9.37498V21.3333H52.0832V9.37498H45.2498ZM24.7498 21.3333V9.37498H17.9165V21.3333H24.7498ZM43.5415 7.66665C43.9946 7.66665 44.4291 7.84663 44.7495 8.16701C45.0699 8.48738 45.2498 8.9219 45.2498 9.37498H52.0832C52.0832 7.10959 51.1832 4.93698 49.5814 3.33511C47.9795 1.73324 45.8069 0.833313 43.5415 0.833313V7.66665ZM26.4582 0.833313C24.1928 0.833313 22.0202 1.73324 20.4183 3.33511C18.8164 4.93698 17.9165 7.10959 17.9165 9.37498H24.7498C24.7498 8.9219 24.9298 8.48738 25.2502 8.16701C25.5706 7.84663 26.0051 7.66665 26.4582 7.66665V0.833313Z" fill="white"/>
<path d="M24.7498 43.5416H45.2498M34.9998 33.2916V53.7916" stroke="white" stroke-width="4" stroke-linecap="round" stroke-linejoin="round"/>
</mask>
<g mask="url(#mask0_304_186)">
<path d="M-6.00024 -6H75.9998V76H-6.00024V-6Z" fill="black"/>
</g>
</svg>
