<svg width="52" height="26" viewBox="0 0 52 26" fill="none" xmlns="http://www.w3.org/2000/svg">
<path d="M13.9994 25.6289C10.123 25.6289 6.82816 24.4136 4.11472 21.9831C1.40128 19.5525 0.0445557 16.6011 0.0445557 13.1289C0.0445557 9.65668 1.40128 6.70529 4.11472 4.27474C6.82816 1.84418 10.123 0.628906 13.9994 0.628906H37.2575C41.1338 0.628906 44.4287 1.84418 47.1421 4.27474C49.8556 6.70529 51.2123 9.65668 51.2123 13.1289C51.2123 16.6011 49.8556 19.5525 47.1421 21.9831C44.4287 24.4136 41.1338 25.6289 37.2575 25.6289H13.9994ZM37.2575 19.3789C39.1956 19.3789 40.8431 18.7713 42.1998 17.556C43.5565 16.3407 44.2349 14.865 44.2349 13.1289C44.2349 11.3928 43.5565 9.9171 42.1998 8.70182C40.8431 7.48654 39.1956 6.87891 37.2575 6.87891C35.3193 6.87891 33.6718 7.48654 32.3151 8.70182C30.9584 9.9171 30.28 11.3928 30.28 13.1289C30.28 14.865 30.9584 16.3407 32.3151 17.556C33.6718 18.7713 35.3193 19.3789 37.2575 19.3789Z" fill="black"/>
</svg>
