<svg width="17" height="17" viewBox="0 0 17 17" fill="none" xmlns="http://www.w3.org/2000/svg">
<path d="M16.3033 15.8871L11.5407 10.9991C12.4284 9.9146 12.9634 8.51935 12.9634 6.99585C12.9634 3.5441 10.2203 0.74585 6.83654 0.74585C3.45282 0.74585 0.709717 3.5441 0.709717 6.99585C0.709717 10.4476 3.45282 13.2458 6.83654 13.2458C8.37388 13.2458 9.77815 12.6668 10.854 11.7123L15.6099 16.5943C15.8013 16.7896 16.1118 16.7896 16.3032 16.5943C16.4944 16.3991 16.4944 16.0826 16.3032 15.8871H16.3033ZM6.83654 12.2541C3.98977 12.2541 1.68192 9.89985 1.68192 6.99585C1.68192 4.09185 3.98977 1.7376 6.83654 1.7376C9.68331 1.7376 11.9912 4.09185 11.9912 6.99585C11.9912 9.89985 9.68331 12.2541 6.83654 12.2541Z" fill="#FFFCFC"/>
</svg>
