<svg width="16" height="15" viewBox="0 0 16 15" fill="none" xmlns="http://www.w3.org/2000/svg">
<path d="M12.0786 0.9375L11.4158 1.60031L12.628 2.8125H10.2421C9.22813 2.81169 8.22345 3.00518 7.28236 3.3825L5.27658 4.18453C4.44655 4.51744 3.56041 4.68817 2.66611 4.6875H1.29736V5.625H2.66518C3.67909 5.62581 4.68377 5.43232 5.62486 5.055L7.63064 4.25297C8.46067 3.92006 9.34681 3.74933 10.2411 3.75H12.6271L11.4149 4.96219L12.0786 5.625L14.4224 3.28125L12.0786 0.9375Z" fill="black"/>
<path d="M10.2036 5.15625L9.5408 5.81906L10.753 7.03125H9.22018C8.26442 7.0307 7.3164 7.20267 6.42174 7.53891L5.21893 7.98984C4.4296 8.28642 3.59322 8.43807 2.75002 8.4375H1.29736V9.375H2.75002C3.70562 9.3755 4.65347 9.20352 5.54799 8.86734L6.7508 8.41641C7.54012 8.11983 8.3765 7.96818 9.21971 7.96875H10.7525L9.5408 9.18094L10.2036 9.84375L12.5474 7.5L10.2036 5.15625Z" fill="black"/>
<path d="M8.32861 9.375L7.6658 10.0378L8.87799 11.25H8.13971C7.28303 11.2498 6.43194 11.3878 5.61924 11.6587L5.11627 11.8266C4.39927 12.0657 3.64836 12.1876 2.89252 12.1875H1.29736V13.125H2.89252C3.74919 13.1252 4.60029 12.9872 5.41299 12.7163L5.91596 12.5484C6.63296 12.3093 7.38387 12.1874 8.13971 12.1875H8.87799L7.6658 13.3997L8.32861 14.0625L10.6724 11.7188L8.32861 9.375Z" fill="black"/>
</svg>
