<svg width="80" height="80" viewBox="0 0 80 80" fill="none" xmlns="http://www.w3.org/2000/svg">
<g clip-path="url(#clip0_337_13)">
<path d="M30.7692 3.0769C25.7077 3.0769 21.5385 7.24613 21.5385 12.3077V18.4615H27.6923V12.3077C27.6923 10.5754 29.0369 9.23075 30.7692 9.23075H49.2308C50.9631 9.23075 52.3077 10.5754 52.3077 12.3077V18.4615H58.4615V12.3077C58.4615 7.24613 54.2923 3.0769 49.2308 3.0769H30.7692ZM9.23077 21.5384C6.78262 21.5384 4.43473 22.511 2.70363 24.2421C0.972525 25.9732 0 28.3211 0 30.7692L0 67.6923C0 70.1404 0.972525 72.4883 2.70363 74.2194C4.43473 75.9505 6.78262 76.923 9.23077 76.923H70.7692C75.8646 76.923 80 72.7877 80 67.6923V30.7692C80 28.3211 79.0275 25.9732 77.2964 24.2421C75.5653 22.511 73.2174 21.5384 70.7692 21.5384H9.23077ZM40 30.48C42.463 30.478 44.9021 30.9616 47.178 31.9032C49.4539 32.8448 51.5217 34.2259 53.2633 35.9674C55.0049 37.709 56.386 39.7769 57.3276 42.0527C58.2692 44.3286 58.7528 46.7678 58.7508 49.2307C58.7528 51.6937 58.2692 54.1329 57.3276 56.4087C56.386 58.6846 55.0049 60.7525 53.2633 62.4941C51.5217 64.2356 49.4539 65.6167 47.178 66.5583C44.9021 67.4999 42.463 67.9835 40 67.9815C37.537 67.9835 35.0979 67.4999 32.822 66.5583C30.5461 65.6167 28.4783 64.2356 26.7367 62.4941C24.9951 60.7525 23.614 58.6846 22.6724 56.4087C21.7308 54.1329 21.2472 51.6937 21.2492 49.2307C21.2472 46.7678 21.7308 44.3286 22.6724 42.0527C23.614 39.7769 24.9951 37.709 26.7367 35.9674C28.4783 34.2259 30.5461 32.8448 32.822 31.9032C35.0979 30.9616 37.537 30.478 40 30.48ZM36.9231 40V46.1538H30.7692V52.3077H36.9231V58.4615H43.0769V52.3077H49.2308V46.1538H43.0769V40H36.9231Z" fill="#CCCCCC"/>
</g>
<defs>
<clipPath id="clip0_337_13">
<rect width="80" height="80" fill="white"/>
</clipPath>
</defs>
</svg>
